<svg xmlns="http://www.w3.org/2000/svg" viewBox="0 0 640 360"><defs><linearGradient id="a" y2="1"><stop stop-color="#091226"/><stop offset=".55" stop-color="#192a43"/><stop offset="1" stop-color="#05070c"/></linearGradient><radialGradient id="e"><stop stop-color="#ffb040"/><stop offset=".35" stop-color="#ff4c20"/><stop offset="1" stop-color="#ff2a00" stop-opacity="0"/></radialGradient><filter id="gl"><feGaussianBlur stdDeviation="5"/></filter></defs><rect width="640" height="360" fill="url(#a)"/><path d="M0 270 90 154l64 43 88-135 82 117 78-77 65 101 73-64 100 131v90H0z" fill="#0b1018"/><g stroke="#a8c9ff" stroke-width="3" fill="none" opacity=".8"><path d="M468 0 435 54l26 12-39 58 31 10-54 78"/><path d="M572 28 548 66l18 10-27 44"/></g><g transform="translate(204 86)"><path d="M41 113c15-72 62-108 127-102 55 5 105 37 129 93-45-35-87-41-126-24 55 1 94 21 122 62-46-23-87-24-126-6-42 19-85 22-126-23z" fill="#171a20"/><path d="M53 101c32-60 83-77 139-56 47 18 74 49 94 92-40-31-78-39-114-25l-34 24-57 7z" fill="#23262e"/><path d="m94 69 39-42 8 31 33-35 7 37 37-25 2 37 39-3-19 33-146-2z" fill="#12141a"/><path d="M79 97c27-32 72-41 117-20 22 10 39 24 52 42-46-19-94-11-137 24z" fill="#0c0e12"/><ellipse cx="162" cy="90" rx="9" ry="5" fill="#ff6a1c"/><circle cx="162" cy="90" r="17" fill="url(#e)" filter="url(#gl)" opacity=".9"/><path d="M241 128c29 3 54 18 78 46-39-11-68-8-91 6z" fill="#101319"/></g><path d="M318 245c-42 1-69 22-81 63h166c-15-43-45-64-85-63z" fill="#07090d"/><circle cx="323" cy="234" r="6" fill="#c6dcff"/><circle cx="323" cy="234" r="18" fill="#7aa7ff" opacity=".18"/></svg>