<svg xmlns="http://www.w3.org/2000/svg" viewBox="0 0 640 360"><defs><linearGradient id="n" y2="1"><stop stop-color="#061816"/><stop offset=".58" stop-color="#0b3028"/><stop offset="1" stop-color="#020707"/></linearGradient><radialGradient id="w"><stop stop-color="#7affbd"/><stop offset="1" stop-color="#38f18e" stop-opacity="0"/></radialGradient><filter id="g"><feGaussianBlur stdDeviation="8"/></filter></defs><rect width="640" height="360" fill="url(#n)"/><g fill="#08100f"><path d="M0 208h50v-84h25v84h36V97h28v111h47V75h30v133h43V119h26v89h58V59h33v149h46V106h30v102h63V86h28v122h97v152H0z"/><path d="M94 130 63 97l-30 33h13v78h36v-78zM205 107l-34-41-34 41h15v101h39V107zM358 91l-39-48-39 48h17v117h44V91zM509 113l-32-38-32 38h14v95h37v-95z"/></g><g opacity=".35"><circle cx="102" cy="235" r="70" fill="url(#w)"/><circle cx="521" cy="253" r="75" fill="url(#w)"/></g><g transform="translate(258 77)"><path d="M63 12 38 42l9 31-20 24 9 26-20 55h96l-18-55 10-27-20-24 7-31z" fill="#171c1b" stroke="#587266" stroke-width="3"/><path d="M42 54c0-26 41-30 49-4l-5 46H47z" fill="#d6d7c8"/><path d="M48 64h35l-3 24-28 2z" fill="#313b35"/><circle cx="56" cy="71" r="4" fill="#68ffad"/><circle cx="75" cy="71" r="4" fill="#68ffad"/><path d="M52 83h27" stroke="#101513" stroke-width="4"/><path d="m38 45 26-34 29 34-12 3-17-19-16 19z" fill="#2b3630"/><path d="M39 111h53l17 83H19z" fill="#202824" stroke="#52645b" stroke-width="3"/><circle cx="64" cy="142" r="10" fill="#71ffb0"/><circle cx="64" cy="142" r="29" fill="url(#w)" filter="url(#g)" opacity=".75"/><path d="M20 123-12 177M108 124l32 54" stroke="#27312c" stroke-width="15" stroke-linecap="round"/></g><g fill="#72ffb1" opacity=".65"><circle cx="76" cy="286" r="3"/><circle cx="154" cy="257" r="2"/><circle cx="438" cy="272" r="3"/><circle cx="555" cy="299" r="2"/></g></svg>