<svg xmlns="http://www.w3.org/2000/svg" viewBox="0 0 640 360"><defs><radialGradient id="bg"><stop stop-color="#30134b"/><stop offset=".52" stop-color="#120922"/><stop offset="1" stop-color="#030207"/></radialGradient><linearGradient id="c" x2="0" y2="1"><stop stop-color="#f1c9ff"/><stop offset=".35" stop-color="#a449ff"/><stop offset="1" stop-color="#4b0b79"/></linearGradient><filter id="gl"><feGaussianBlur stdDeviation="9"/></filter></defs><rect width="640" height="360" fill="url(#bg)"/><g opacity=".33" stroke="#ae59ef" fill="none"><ellipse cx="320" cy="176" rx="230" ry="122"/><ellipse cx="320" cy="176" rx="185" ry="94"/><ellipse cx="320" cy="176" rx="140" ry="67"/></g><g stroke="#5c2e79" stroke-width="7" opacity=".8"><path d="M0 66 240 157M0 292l236-88M640 63 400 157M640 294 400 203"/><path d="M111 0 267 141M530 0 377 140M113 360l154-145M528 360 379 216"/></g><circle cx="320" cy="178" r="112" fill="#9d42e6" opacity=".17" filter="url(#gl)"/><g transform="translate(275 65)"><path d="m44 0 34 50-16 16 20 25-18 29 19 29-38 82-39-82 19-29L7 91l20-25-16-16z" fill="url(#c)" stroke="#e9c5ff" stroke-width="3"/><path d="m45 21 14 36-15 14-13-14zM44 91l17 25-17 26-16-26zM44 157l18 15-18 39-19-39z" fill="#f4ddff" opacity=".45"/></g><g fill="#c27cff"><circle cx="115" cy="87" r="3"/><circle cx="160" cy="258" r="4"/><circle cx="480" cy="91" r="3"/><circle cx="523" cy="244" r="4"/><circle cx="319" cy="310" r="3"/></g><g stroke="#dd9dff" stroke-width="2" opacity=".8"><path d="M256 175 213 158l11 19-26 16 48 10M385 177l44-18-12 20 27 16-49 9"/></g></svg>