<svg xmlns="http://www.w3.org/2000/svg" viewBox="0 0 1600 900"><defs><linearGradient id="sky" x2="0" y2="1"><stop stop-color="#071b18"/><stop offset=".52" stop-color="#173f32"/><stop offset="1" stop-color="#244e3d"/></linearGradient><linearGradient id="water" x2="0" y2="1"><stop stop-color="#14392f"/><stop offset="1" stop-color="#061b19"/></linearGradient><radialGradient id="nexus"><stop stop-color="#8dffd0" stop-opacity=".95"/><stop offset=".32" stop-color="#45d59c" stop-opacity=".55"/><stop offset="1" stop-color="#0c6c51" stop-opacity="0"/></radialGradient><filter id="blur"><feGaussianBlur stdDeviation="14"/></filter></defs><rect width="1600" height="900" fill="url(#sky)"/><circle cx="800" cy="260" r="220" fill="url(#nexus)" opacity=".55"/><g fill="#061512"><path d="M0 0h195l-26 203 92 117-74 127-187 35zM1600 0h-195l26 203-92 117 74 127 187 35z"/><path d="M95 170l65-118 34 145 89-101-22 219-88 81zM1505 170l-65-118-34 145-89-101 22 219 88 81z"/></g><g fill="#102c25" stroke="#315b49" stroke-width="8"><path d="M0 415h430l78 78-88 106H0z"/><path d="M1600 415h-430l-78 78 88 106h420z"/></g><path d="M0 460h1600v440H0z" fill="url(#water)"/><path d="M800 455v445" stroke="#79efbd" stroke-width="8" opacity=".8"/><g filter="url(#blur)" stroke="#62e6ae" stroke-width="26" opacity=".26"><path d="M800 470v420"/></g><path d="M795 470l-45 72 37 60-64 76 72 82-50 140M805 470l47 70-31 66 63 73-77 88 49 133" fill="none" stroke="#58dca4" stroke-width="5" opacity=".7"/><g fill="#1c4231" stroke="#47745b" stroke-width="5"><path d="M35 590l260-88 185 100-94 211-351 47z"/><path d="M1565 590l-260-88-185 100 94 211 351 47z"/></g><g fill="#244f3a"><ellipse cx="225" cy="625" rx="190" ry="32"/><ellipse cx="1375" cy="625" rx="190" ry="32"/><ellipse cx="390" cy="820" rx="210" ry="25"/><ellipse cx="1210" cy="820" rx="210" ry="25"/></g><g fill="#9dffd4"><circle cx="150" cy="520" r="5"/><circle cx="270" cy="690" r="4"/><circle cx="445" cy="560" r="5"/><circle cx="1450" cy="520" r="5"/><circle cx="1330" cy="690" r="4"/><circle cx="1155" cy="560" r="5"/><circle cx="740" cy="650" r="4"/><circle cx="865" cy="720" r="4"/></g><g fill="#0c241d" opacity=".78"><path d="M0 760c160-70 260-32 390 30 130 62 250 39 410-12v122H0z"/><path d="M1600 760c-160-70-260-32-390 30-130 62-250 39-410-12v122h800z"/></g></svg>